<svg xmlns="http://www.w3.org/2000/svg" viewBox="0 0 120 120" aria-hidden="true">
  <defs>
    <linearGradient id="jb" x1="0%" y1="0%" x2="100%" y2="0%">
      <stop offset="0%" stop-color="#ff7a2b"/>
      <stop offset="100%" stop-color="#ff984a"/>
    </linearGradient>
  </defs>
  <circle cx="60" cy="60" r="56" fill="#ffffff" stroke="#ff7a2b" stroke-width="4"/>
  <path d="M15 46c7-18 27-30 45-30s38 12 45 30c-6 6-53 6-90 0Z" fill="url(#jb)"/>
  <path d="M21 45c5 3 18 6 39 6s34-3 39-6c-3-6-7-11-12-15-8-6-17-9-27-9s-19 3-27 9c-5 4-9 9-12 15Z" fill="rgba(0,0,0,0.08)"/>
  <path d="M94 40l14 6-5 16c-3-7-5-14-9-22Z" fill="url(#jb)"/>
  <path d="M26 52c0 18 14 36 34 36s34-18 34-36-15-30-34-30-34 14-34 30Z" fill="#ffffff"/>
  <ellipse cx="43" cy="62" rx="8" ry="10" fill="#1f2635"/>
  <ellipse cx="77" cy="62" rx="8" ry="10" fill="#1f2635"/>
  <circle cx="40" cy="59" r="2.5" fill="#fff"/>
  <circle cx="74" cy="59" r="2.5" fill="#fff"/>
  <path d="M40 88c6 6 13 9 20 9s14-3 20-9c-6 2-13 3-20 3s-14-1-20-3Z" fill="#ff7a2b"/>
  <path d="M46 76c4 4 9 6 14 6s10-2 14-6" stroke="#1f2635" stroke-width="4" stroke-linecap="round" fill="none"/>
  <circle cx="36" cy="72" r="4" fill="#f5d1b5"/>
  <circle cx="84" cy="72" r="4" fill="#f5d1b5"/>
</svg>
